<svg width="120" height="120" viewBox="0 0 120 120" fill="none" xmlns="http://www.w3.org/2000/svg">
<path d="M60.108 0.449951C27.0366 0.449951 0.219116 27.7197 0.219116 61.3613C0.219116 88.274 17.3791 111.107 41.1748 119.161C44.1679 119.725 45.2667 117.84 45.2667 116.231C45.2667 114.778 45.2112 109.98 45.1854 104.89C28.5242 108.575 25.0085 97.7032 25.0085 97.7032C22.2842 90.6626 18.359 88.7905 18.359 88.7905C12.9252 85.0099 18.7685 85.0876 18.7685 85.0876C24.7824 85.5163 27.949 91.3646 27.949 91.3646C33.2905 100.677 41.9593 97.9846 45.3768 96.4282C45.9143 92.4923 47.4664 89.8032 49.1791 88.2831C35.877 86.7428 21.8935 81.5199 21.8935 58.1799C21.8935 51.5297 24.233 46.0959 28.0641 41.8302C27.4423 40.295 25.3923 34.1006 28.6442 25.7104C28.6442 25.7104 33.6733 24.0733 45.118 31.9542C49.8951 30.6045 55.0185 29.9277 60.108 29.9045C65.1976 29.9277 70.3249 30.6045 75.111 31.9542C86.5418 24.0733 91.5639 25.7104 91.5639 25.7104C94.8237 34.1006 92.7728 40.295 92.151 41.8302C95.991 46.0959 98.3147 51.5297 98.3147 58.1799C98.3147 81.5753 84.3044 86.7267 70.9685 88.2347C73.1166 90.125 75.0307 93.8319 75.0307 99.5148C75.0307 107.664 74.9613 114.223 74.9613 116.231C74.9613 117.852 76.0393 119.751 79.075 119.153C102.858 111.089 119.996 88.2649 119.996 61.3613C119.996 27.7197 93.1824 0.449951 60.108 0.449951Z" fill="white"/>
<path d="M22.9021 87.9057C22.7702 88.2093 22.3021 88.2991 21.8757 88.0913C21.4413 87.8926 21.1973 87.4801 21.3382 87.1764C21.4671 86.8648 21.9362 86.779 22.3696 86.9858C22.8049 87.1855 23.0529 87.6021 22.9021 87.9057Z" fill="white"/>
<path d="M25.3279 90.6575C25.0422 90.9268 24.4839 90.8017 24.1051 90.3761C23.7133 89.9514 23.6399 89.3835 23.9295 89.1102C24.2241 88.8409 24.7655 88.9669 25.1583 89.3916C25.55 89.8213 25.6264 90.3851 25.3279 90.6575Z" fill="white"/>
<path d="M27.6892 94.1658C27.3223 94.4251 26.7223 94.182 26.3514 93.6403C25.9844 93.0987 25.9844 92.4491 26.3593 92.1888C26.7312 91.9286 27.3223 92.1626 27.6981 92.7002C28.0641 93.25 28.0641 93.9006 27.6892 94.1658Z" fill="white"/>
<path d="M30.9243 97.5548C30.596 97.923 29.8968 97.8241 29.3851 97.3218C28.8615 96.8306 28.7157 96.1336 29.0449 95.7654C29.3772 95.3962 30.0803 95.5001 30.596 95.9984C31.1157 96.4887 31.2744 97.1907 30.9243 97.5548Z" fill="white"/>
<path d="M35.3871 99.5228C35.2423 99.9999 34.5689 100.217 33.8906 100.014C33.2132 99.8052 32.7699 99.2464 32.9068 98.7643C33.0476 98.2841 33.724 98.0582 34.4073 98.2751C35.0836 98.4828 35.5279 99.0376 35.3871 99.5228Z" fill="white"/>
<path d="M40.2882 99.888C40.305 100.39 39.7298 100.807 39.0177 100.815C38.3017 100.832 37.7225 100.426 37.7146 99.9314C37.7146 99.424 38.2769 99.0115 38.9929 98.9994C39.705 98.9853 40.2882 99.3887 40.2882 99.888Z" fill="white"/>
<path d="M44.8492 99.0981C44.9345 99.5883 44.4396 100.092 43.7325 100.225C43.0373 100.355 42.3937 100.052 42.3054 99.5661C42.2191 99.0638 42.7229 98.5605 43.4171 98.4303C44.1252 98.3053 44.759 98.5998 44.8492 99.0981Z" fill="white"/>
</svg>
